# Blender 4.4.2
# www.blender.org
mtllib player.mtl
o Cone
v -1.000000 0.528361 0.000000
v -1.000000 0.002188 -0.866025
v -1.000000 0.002188 0.866025
v 1.000000 -0.000000 -0.000000
v -0.600000 0.610653 0.000000
v -0.200000 0.490666 0.000000
v 0.200000 0.324240 -0.000000
v 0.738660 0.200000 -0.000000
v -0.400000 0.275279 0.216506
v -0.600000 0.184248 0.533013
v -0.800000 0.093218 0.649519
v -0.400000 0.275279 -0.216506
v -0.600000 0.184248 -0.533013
v -0.800000 0.093218 -0.649519
v -0.400000 0.488481 0.000000
v 0.000000 0.345274 -0.000000
vn 0.3530 0.4613 -0.8140
vn -1.0000 -0.0000 -0.0000
vn -0.0011 -1.0000 -0.0000
vn -0.1732 0.8417 0.5114
vn 0.3530 0.4613 0.8140
vn 0.1864 0.8081 0.5588
vn 0.0930 0.8842 0.4577
vn 0.3991 0.6533 0.6434
vn -0.1732 0.8417 -0.5114
vn 0.3991 0.6533 -0.6434
vn 0.0930 0.8842 -0.4577
vn 0.1864 0.8081 -0.5588
vn 0.0085 0.7808 0.6247
vn 0.5350 0.6597 0.5278
vn 0.3504 0.4819 0.8031
vn 0.0275 0.9559 0.2923
vn 0.5671 -0.2359 0.7892
vn 0.5671 -0.2359 -0.7892
vn 0.0275 0.9559 -0.2923
vn -0.0078 0.7125 -0.7016
vn 0.5350 0.6597 -0.5278
vn 0.0085 0.7808 -0.6247
vn -0.0078 0.7125 0.7016
vn 0.3504 0.4819 -0.8031
vn 1.0000 -0.0000 -0.0000
vn -0.1724 0.9850 -0.0000
vt 0.250000 0.298000
vt 0.250000 0.250000
vt 0.457846 0.130000
vt 0.750000 0.490000
vt 0.957846 0.130000
vt 0.542154 0.130000
vt 0.042154 0.130000
vt 0.250000 0.490000
vt 0.250000 0.442000
vt 0.250000 0.346000
vt 0.094115 0.196000
vt 0.198038 0.328000
vt 0.250000 0.418000
vt 0.405885 0.196000
vt 0.250000 0.370000
vt 0.301962 0.328000
vt 0.146077 0.262000
vt 0.250000 0.394000
vt 0.353923 0.262000
vt 0.375161 0.375940
vt 0.624289 0.376310
vt 0.499543 0.498788
vt 0.500072 0.142493
s 0
usemtl Material.002
f 8/1/1 4/2/1 2/3/1
f 1/4/2 2/5/2 3/6/2
f 2/3/3 4/2/3 3/7/3
f 1/8/4 3/7/4 5/9/4
f 3/7/5 4/2/5 8/1/5
f 3/7/6 8/1/6 7/10/6
f 3/7/7 7/10/7 11/11/7
f 5/9/8 9/12/8 15/13/8
f 1/8/9 5/9/9 2/3/9
f 2/3/10 5/9/10 14/14/10
f 16/15/11 7/10/11 12/16/11
f 7/10/12 8/1/12 2/3/12
f 3/7/8 11/11/8 5/9/8
f 11/11/13 10/17/13 5/9/13
f 10/17/14 9/12/14 5/9/14
f 16/15/15 6/18/15 9/12/15
f 7/10/16 9/12/16 10/17/16
f 7/10/17 10/17/17 11/11/17
f 7/10/11 2/3/11 14/14/11
f 7/10/18 14/14/18 13/19/18
f 7/10/19 13/19/19 12/16/19
f 15/13/20 6/18/20 12/16/20
f 5/9/21 12/16/21 13/19/21
f 5/9/22 13/19/22 14/14/22
f 5/9/10 15/13/10 12/16/10
f 9/12/23 6/18/23 15/13/23
f 7/10/7 16/15/7 9/12/7
f 6/18/24 16/15/24 12/16/24
f 9/20/25 12/21/25 15/22/25
f 12/21/26 9/20/26 16/23/26
