# Blender 4.4.3
# www.blender.org
mtllib Skybox.mtl
o Cube
v 1.000000 1.000000 -1.000000
v 1.000000 -1.000000 -1.000000
v 1.000000 1.000000 1.000000
v 1.000000 -1.000000 1.000000
v -1.000000 1.000000 -1.000000
v -1.000000 -1.000000 -1.000000
v -1.000000 1.000000 1.000000
v -1.000000 -1.000000 1.000000
vn -0.0000 -1.0000 -0.0000
vn -0.0000 -0.0000 -1.0000
vn 1.0000 -0.0000 -0.0000
vn -0.0000 1.0000 -0.0000
vn -1.0000 -0.0000 -0.0000
vn -0.0000 -0.0000 1.0000
vt 0.000000 1.000000
vt 1.000000 0.000000
vt 0.000000 0.000000
vt 1.000000 1.000000
s 0
usemtl Material
f 3/1/1 5/2/1 1/3/1
f 8/2/2 3/1/2 4/4/2
f 6/4/3 7/3/3 8/2/3
f 8/1/4 2/2/4 6/3/4
f 4/4/5 1/3/5 2/2/5
f 2/2/6 5/1/6 6/4/6
f 3/1/1 7/4/1 5/2/1
f 8/2/2 7/3/2 3/1/2
f 6/4/3 5/1/3 7/3/3
f 8/1/4 4/4/4 2/2/4
f 4/4/5 3/1/5 1/3/5
f 2/2/6 1/3/6 5/1/6
